<?xml version="1.0" encoding="UTF-8" standalone="no"?><!DOCTYPE svg PUBLIC "-//W3C//DTD SVG 1.1//EN" "http://www.w3.org/Graphics/SVG/1.1/DTD/svg11.dtd"><svg width="100%" height="100%" viewBox="0 0 316 360" version="1.1" xmlns="http://www.w3.org/2000/svg" xmlns:xlink="http://www.w3.org/1999/xlink" xml:space="preserve" xmlns:serif="http://www.serif.com/" style="fill-rule:evenodd;clip-rule:evenodd;stroke-linejoin:round;stroke-miterlimit:2;"><path d="M171.238,31.081c-1.18,-1.785 -0.931,-4.155 0.593,-5.657c-0.004,-0.004 -0.004,-0.004 -0.004,-0.004c1.503,-1.479 3.596,-2.196 5.691,-1.949c2.094,0.247 3.964,1.43 5.082,3.218c11.415,18.412 18.011,40.12 18.011,63.357c-0,23.604 -6.807,45.631 -18.564,64.223c-0.994,1.556 -2.633,2.585 -4.466,2.804c-1.833,0.218 -3.668,-0.397 -5,-1.676c-0.128,-0.117 -0.252,-0.237 -0.376,-0.357c-1.749,-1.702 -2.046,-4.405 -0.708,-6.446c10.871,-16.889 17.175,-36.988 17.175,-58.548c-0,-21.735 -6.407,-41.986 -17.434,-58.964Z" style="fill:#81d3df;"/><path d="M135.702,32.838c0.962,-1.165 2.425,-1.797 3.932,-1.701c1.508,0.096 2.878,0.909 3.685,2.186c10.148,16.511 16.007,35.938 16.007,56.722c-0,20.785 -5.859,40.211 -16.014,56.718c-0.806,1.275 -2.174,2.086 -3.679,2.182c-1.505,0.096 -2.965,-0.536 -3.926,-1.698c-12.751,-15.59 -20.4,-35.51 -20.4,-57.202c-0,-21.692 7.649,-41.612 20.395,-57.207Z" style="fill:#006972;"/><path d="M142.522,336.055c-1.074,1.01 -2.54,1.494 -4.005,1.322c-1.465,-0.172 -2.778,-0.982 -3.589,-2.214c-12.057,-18.764 -19.06,-41.083 -19.06,-65.024c-0,-23.941 7.003,-46.26 19.07,-65.017c0.809,-1.229 2.12,-2.037 3.581,-2.209c1.461,-0.172 2.924,0.311 3.995,1.319c0.526,0.48 1.039,0.974 1.547,1.474c1.682,1.666 1.963,4.284 0.674,6.27c-10.719,16.81 -16.928,36.768 -16.928,58.165c0,21.397 6.209,41.354 16.922,58.169c1.287,1.983 1.006,4.597 -0.673,6.26c-0.502,0.505 -1.015,0.999 -1.534,1.487Z" style="fill:#81d3df;"/><path d="M180.129,326.762c-0.96,1.182 -2.432,1.827 -3.952,1.732c-1.52,-0.095 -2.9,-0.918 -3.706,-2.211c-9.93,-16.386 -15.654,-35.602 -15.654,-56.145c-0,-20.543 5.723,-39.759 15.661,-56.14c0.804,-1.29 2.182,-2.112 3.699,-2.207c1.517,-0.095 2.987,0.549 3.945,1.729c12.468,15.502 19.928,35.196 19.928,56.618c0,21.422 -7.46,41.116 -19.922,56.623Z" style="fill:#006972;"/><path d="M96.669,12.217l-0,330.573c0,9.163 -7.838,16.602 -17.493,16.602c-0.622,0 -1.237,-0.031 -1.843,-0.091c-0.568,-0.08 -1.135,-0.163 -1.7,-0.25c-27.048,-4.155 -51.916,-16.374 -72.747,-34.504c-2.886,-2.537 -3.562,-6.768 -1.61,-10.078c22.414,-38.418 35.514,-84.739 35.514,-134.581c0,-50.016 -13.191,-96.486 -35.753,-134.979c-1.817,-3.069 -1.199,-6.996 1.473,-9.358c20.345,-17.812 44.567,-29.976 70.926,-34.47c2.533,-0.432 5.086,-0.793 7.658,-1.081c7.49,0.528 13.674,5.542 15.576,12.217Z" style="fill:#006972;"/><path d="M219.25,12.217l0,330.573c0,9.163 7.838,16.602 17.493,16.602c0.622,0 1.237,-0.031 1.843,-0.091c0.568,-0.08 1.135,-0.163 1.7,-0.25c27.048,-4.155 51.916,-16.374 72.747,-34.504c2.886,-2.537 3.562,-6.768 1.61,-10.078c-22.414,-38.418 -35.514,-84.739 -35.514,-134.581c0,-50.016 13.191,-96.486 35.753,-134.979c1.817,-3.069 1.199,-6.996 -1.473,-9.358c-20.345,-17.812 -44.567,-29.976 -70.926,-34.47c-2.533,-0.432 -5.086,-0.793 -7.658,-1.081c-7.49,0.528 -13.674,5.542 -15.576,12.217Z" style="fill:#006972;"/></svg>